<svg id="visual" viewBox="0 0 900 200" width="900" height="200" xmlns="http://www.w3.org/2000/svg" xmlns:xlink="http://www.w3.org/1999/xlink" version="1.1"><path d="M0 132L16.7 127.2C33.3 122.3 66.7 112.7 100 107.8C133.3 103 166.7 103 200 108.3C233.3 113.7 266.7 124.3 300 124.3C333.3 124.3 366.7 113.7 400 109.2C433.3 104.7 466.7 106.3 500 106C533.3 105.7 566.7 103.3 600 103.2C633.3 103 666.7 105 700 106C733.3 107 766.7 107 800 107.2C833.3 107.3 866.7 107.7 883.3 107.8L900 108L900 0L883.3 0C866.7 0 833.3 0 800 0C766.7 0 733.3 0 700 0C666.7 0 633.3 0 600 0C566.7 0 533.3 0 500 0C466.7 0 433.3 0 400 0C366.7 0 333.3 0 300 0C266.7 0 233.3 0 200 0C166.7 0 133.3 0 100 0C66.7 0 33.3 0 16.7 0L0 0Z" fill="#00b7ff"></path><path d="M0 109L16.7 105C33.3 101 66.7 93 100 91.7C133.3 90.3 166.7 95.7 200 94.8C233.3 94 266.7 87 300 90C333.3 93 366.7 106 400 112C433.3 118 466.7 117 500 116.3C533.3 115.7 566.7 115.3 600 109.2C633.3 103 666.7 91 700 87C733.3 83 766.7 87 800 86.5C833.3 86 866.7 81 883.3 78.5L900 76L900 0L883.3 0C866.7 0 833.3 0 800 0C766.7 0 733.3 0 700 0C666.7 0 633.3 0 600 0C566.7 0 533.3 0 500 0C466.7 0 433.3 0 400 0C366.7 0 333.3 0 300 0C266.7 0 233.3 0 200 0C166.7 0 133.3 0 100 0C66.7 0 33.3 0 16.7 0L0 0Z" fill="#008fec"></path><path d="M0 77L16.7 76C33.3 75 66.7 73 100 69C133.3 65 166.7 59 200 57C233.3 55 266.7 57 300 58.5C333.3 60 366.7 61 400 65.8C433.3 70.7 466.7 79.3 500 83C533.3 86.7 566.7 85.3 600 85C633.3 84.7 666.7 85.3 700 81C733.3 76.7 766.7 67.3 800 63.2C833.3 59 866.7 60 883.3 60.5L900 61L900 0L883.3 0C866.7 0 833.3 0 800 0C766.7 0 733.3 0 700 0C666.7 0 633.3 0 600 0C566.7 0 533.3 0 500 0C466.7 0 433.3 0 400 0C366.7 0 333.3 0 300 0C266.7 0 233.3 0 200 0C166.7 0 133.3 0 100 0C66.7 0 33.3 0 16.7 0L0 0Z" fill="#0366d2"></path><path d="M0 37L16.7 38.5C33.3 40 66.7 43 100 46C133.3 49 166.7 52 200 52C233.3 52 266.7 49 300 48.5C333.3 48 366.7 50 400 48.7C433.3 47.3 466.7 42.7 500 42.2C533.3 41.7 566.7 45.3 600 48C633.3 50.7 666.7 52.3 700 48C733.3 43.7 766.7 33.3 800 33.5C833.3 33.7 866.7 44.3 883.3 49.7L900 55L900 0L883.3 0C866.7 0 833.3 0 800 0C766.7 0 733.3 0 700 0C666.7 0 633.3 0 600 0C566.7 0 533.3 0 500 0C466.7 0 433.3 0 400 0C366.7 0 333.3 0 300 0C266.7 0 233.3 0 200 0C166.7 0 133.3 0 100 0C66.7 0 33.3 0 16.7 0L0 0Z" fill="#253ab0"></path></svg>