<svg id="visual" viewBox="0 0 900 200" width="900" height="200" xmlns="http://www.w3.org/2000/svg" xmlns:xlink="http://www.w3.org/1999/xlink" version="1.1"><path d="M0 137L16.7 137.2C33.3 137.3 66.7 137.7 100 137.3C133.3 137 166.7 136 200 131.5C233.3 127 266.7 119 300 119C333.3 119 366.7 127 400 134C433.3 141 466.7 147 500 148.8C533.3 150.7 566.7 148.3 600 145C633.3 141.7 666.7 137.3 700 137.3C733.3 137.3 766.7 141.7 800 140.5C833.3 139.3 866.7 132.7 883.3 129.3L900 126L900 0L883.3 0C866.7 0 833.3 0 800 0C766.7 0 733.3 0 700 0C666.7 0 633.3 0 600 0C566.7 0 533.3 0 500 0C466.7 0 433.3 0 400 0C366.7 0 333.3 0 300 0C266.7 0 233.3 0 200 0C166.7 0 133.3 0 100 0C66.7 0 33.3 0 16.7 0L0 0Z" fill="#00b7ff"></path><path d="M0 76L16.7 78.7C33.3 81.3 66.7 86.7 100 87.8C133.3 89 166.7 86 200 83.7C233.3 81.3 266.7 79.7 300 84.8C333.3 90 366.7 102 400 101.7C433.3 101.3 466.7 88.7 500 89C533.3 89.3 566.7 102.7 600 107.2C633.3 111.7 666.7 107.3 700 104C733.3 100.7 766.7 98.3 800 97.8C833.3 97.3 866.7 98.7 883.3 99.3L900 100L900 0L883.3 0C866.7 0 833.3 0 800 0C766.7 0 733.3 0 700 0C666.7 0 633.3 0 600 0C566.7 0 533.3 0 500 0C466.7 0 433.3 0 400 0C366.7 0 333.3 0 300 0C266.7 0 233.3 0 200 0C166.7 0 133.3 0 100 0C66.7 0 33.3 0 16.7 0L0 0Z" fill="#008fec"></path><path d="M0 84L16.7 82C33.3 80 66.7 76 100 73C133.3 70 166.7 68 200 66.2C233.3 64.3 266.7 62.7 300 61.3C333.3 60 366.7 59 400 59.5C433.3 60 466.7 62 500 66.2C533.3 70.3 566.7 76.7 600 77.5C633.3 78.3 666.7 73.7 700 72.2C733.3 70.7 766.7 72.3 800 72.7C833.3 73 866.7 72 883.3 71.5L900 71L900 0L883.3 0C866.7 0 833.3 0 800 0C766.7 0 733.3 0 700 0C666.7 0 633.3 0 600 0C566.7 0 533.3 0 500 0C466.7 0 433.3 0 400 0C366.7 0 333.3 0 300 0C266.7 0 233.3 0 200 0C166.7 0 133.3 0 100 0C66.7 0 33.3 0 16.7 0L0 0Z" fill="#0366d2"></path><path d="M0 49L16.7 45C33.3 41 66.7 33 100 30.3C133.3 27.7 166.7 30.3 200 33.3C233.3 36.3 266.7 39.7 300 42.8C333.3 46 366.7 49 400 46.2C433.3 43.3 466.7 34.7 500 30.5C533.3 26.3 566.7 26.7 600 28.3C633.3 30 666.7 33 700 36.2C733.3 39.3 766.7 42.7 800 41.2C833.3 39.7 866.7 33.3 883.3 30.2L900 27L900 0L883.3 0C866.7 0 833.3 0 800 0C766.7 0 733.3 0 700 0C666.7 0 633.3 0 600 0C566.7 0 533.3 0 500 0C466.7 0 433.3 0 400 0C366.7 0 333.3 0 300 0C266.7 0 233.3 0 200 0C166.7 0 133.3 0 100 0C66.7 0 33.3 0 16.7 0L0 0Z" fill="#253ab0"></path></svg>