<svg id="visual" viewBox="0 0 900 200" width="900" height="200" xmlns="http://www.w3.org/2000/svg" xmlns:xlink="http://www.w3.org/1999/xlink" version="1.1"><path d="M0 135L16.7 138.2C33.3 141.3 66.7 147.7 100 144.8C133.3 142 166.7 130 200 123.8C233.3 117.7 266.7 117.3 300 122.7C333.3 128 366.7 139 400 136.5C433.3 134 466.7 118 500 113.2C533.3 108.3 566.7 114.7 600 121.3C633.3 128 666.7 135 700 140.5C733.3 146 766.7 150 800 152.2C833.3 154.3 866.7 154.7 883.3 154.8L900 155L900 0L883.3 0C866.7 0 833.3 0 800 0C766.7 0 733.3 0 700 0C666.7 0 633.3 0 600 0C566.7 0 533.3 0 500 0C466.7 0 433.3 0 400 0C366.7 0 333.3 0 300 0C266.7 0 233.3 0 200 0C166.7 0 133.3 0 100 0C66.7 0 33.3 0 16.7 0L0 0Z" fill="#00b7ff"></path><path d="M0 82L16.7 86.8C33.3 91.7 66.7 101.3 100 103C133.3 104.7 166.7 98.3 200 97.8C233.3 97.3 266.7 102.7 300 100C333.3 97.3 366.7 86.7 400 83C433.3 79.3 466.7 82.7 500 87.2C533.3 91.7 566.7 97.3 600 99.3C633.3 101.3 666.7 99.7 700 95.7C733.3 91.7 766.7 85.3 800 81.8C833.3 78.3 866.7 77.7 883.3 77.3L900 77L900 0L883.3 0C866.7 0 833.3 0 800 0C766.7 0 733.3 0 700 0C666.7 0 633.3 0 600 0C566.7 0 533.3 0 500 0C466.7 0 433.3 0 400 0C366.7 0 333.3 0 300 0C266.7 0 233.3 0 200 0C166.7 0 133.3 0 100 0C66.7 0 33.3 0 16.7 0L0 0Z" fill="#008fec"></path><path d="M0 55L16.7 54.3C33.3 53.7 66.7 52.3 100 55.7C133.3 59 166.7 67 200 67.5C233.3 68 266.7 61 300 61C333.3 61 366.7 68 400 67.3C433.3 66.7 466.7 58.3 500 55.5C533.3 52.7 566.7 55.3 600 60.8C633.3 66.3 666.7 74.7 700 78.3C733.3 82 766.7 81 800 79.2C833.3 77.3 866.7 74.7 883.3 73.3L900 72L900 0L883.3 0C866.7 0 833.3 0 800 0C766.7 0 733.3 0 700 0C666.7 0 633.3 0 600 0C566.7 0 533.3 0 500 0C466.7 0 433.3 0 400 0C366.7 0 333.3 0 300 0C266.7 0 233.3 0 200 0C166.7 0 133.3 0 100 0C66.7 0 33.3 0 16.7 0L0 0Z" fill="#0366d2"></path><path d="M0 33L16.7 36.5C33.3 40 66.7 47 100 49.5C133.3 52 166.7 50 200 47C233.3 44 266.7 40 300 40.8C333.3 41.7 366.7 47.3 400 49.3C433.3 51.3 466.7 49.7 500 47.8C533.3 46 566.7 44 600 42.7C633.3 41.3 666.7 40.7 700 42.2C733.3 43.7 766.7 47.3 800 47C833.3 46.7 866.7 42.3 883.3 40.2L900 38L900 0L883.3 0C866.7 0 833.3 0 800 0C766.7 0 733.3 0 700 0C666.7 0 633.3 0 600 0C566.7 0 533.3 0 500 0C466.7 0 433.3 0 400 0C366.7 0 333.3 0 300 0C266.7 0 233.3 0 200 0C166.7 0 133.3 0 100 0C66.7 0 33.3 0 16.7 0L0 0Z" fill="#253ab0"></path></svg>