<svg id="visual" viewBox="0 0 900 200" width="900" height="200" xmlns="http://www.w3.org/2000/svg" xmlns:xlink="http://www.w3.org/1999/xlink" version="1.1"><path d="M0 134L16.7 129C33.3 124 66.7 114 100 110C133.3 106 166.7 108 200 108.8C233.3 109.7 266.7 109.3 300 111C333.3 112.7 366.7 116.3 400 117.3C433.3 118.3 466.7 116.7 500 113.8C533.3 111 566.7 107 600 108C633.3 109 666.7 115 700 117.2C733.3 119.3 766.7 117.7 800 115.5C833.3 113.3 866.7 110.7 883.3 109.3L900 108L900 0L883.3 0C866.7 0 833.3 0 800 0C766.7 0 733.3 0 700 0C666.7 0 633.3 0 600 0C566.7 0 533.3 0 500 0C466.7 0 433.3 0 400 0C366.7 0 333.3 0 300 0C266.7 0 233.3 0 200 0C166.7 0 133.3 0 100 0C66.7 0 33.3 0 16.7 0L0 0Z" fill="#00b7ff"></path><path d="M0 75L16.7 78.7C33.3 82.3 66.7 89.7 100 96.5C133.3 103.3 166.7 109.7 200 110.5C233.3 111.3 266.7 106.7 300 106.2C333.3 105.7 366.7 109.3 400 107C433.3 104.7 466.7 96.3 500 91.3C533.3 86.3 566.7 84.7 600 89C633.3 93.3 666.7 103.7 700 106.8C733.3 110 766.7 106 800 106.8C833.3 107.7 866.7 113.3 883.3 116.2L900 119L900 0L883.3 0C866.7 0 833.3 0 800 0C766.7 0 733.3 0 700 0C666.7 0 633.3 0 600 0C566.7 0 533.3 0 500 0C466.7 0 433.3 0 400 0C366.7 0 333.3 0 300 0C266.7 0 233.3 0 200 0C166.7 0 133.3 0 100 0C66.7 0 33.3 0 16.7 0L0 0Z" fill="#008fec"></path><path d="M0 73L16.7 73C33.3 73 66.7 73 100 73.5C133.3 74 166.7 75 200 76.2C233.3 77.3 266.7 78.7 300 80.8C333.3 83 366.7 86 400 82C433.3 78 466.7 67 500 65C533.3 63 566.7 70 600 75.5C633.3 81 666.7 85 700 84.2C733.3 83.3 766.7 77.7 800 73.8C833.3 70 866.7 68 883.3 67L900 66L900 0L883.3 0C866.7 0 833.3 0 800 0C766.7 0 733.3 0 700 0C666.7 0 633.3 0 600 0C566.7 0 533.3 0 500 0C466.7 0 433.3 0 400 0C366.7 0 333.3 0 300 0C266.7 0 233.3 0 200 0C166.7 0 133.3 0 100 0C66.7 0 33.3 0 16.7 0L0 0Z" fill="#0366d2"></path><path d="M0 49L16.7 46.8C33.3 44.7 66.7 40.3 100 38C133.3 35.7 166.7 35.3 200 36.3C233.3 37.3 266.7 39.7 300 41C333.3 42.3 366.7 42.7 400 41.2C433.3 39.7 466.7 36.3 500 36.2C533.3 36 566.7 39 600 41C633.3 43 666.7 44 700 43C733.3 42 766.7 39 800 37.3C833.3 35.7 866.7 35.3 883.3 35.2L900 35L900 0L883.3 0C866.7 0 833.3 0 800 0C766.7 0 733.3 0 700 0C666.7 0 633.3 0 600 0C566.7 0 533.3 0 500 0C466.7 0 433.3 0 400 0C366.7 0 333.3 0 300 0C266.7 0 233.3 0 200 0C166.7 0 133.3 0 100 0C66.7 0 33.3 0 16.7 0L0 0Z" fill="#253ab0"></path></svg>