<svg id="visual" viewBox="0 0 900 200" width="900" height="200" xmlns="http://www.w3.org/2000/svg" xmlns:xlink="http://www.w3.org/1999/xlink" version="1.1"><path d="M0 102L16.7 110.7C33.3 119.3 66.7 136.7 100 143.2C133.3 149.7 166.7 145.3 200 139.3C233.3 133.3 266.7 125.7 300 126.3C333.3 127 366.7 136 400 136.2C433.3 136.3 466.7 127.7 500 126.8C533.3 126 566.7 133 600 132.3C633.3 131.7 666.7 123.3 700 118.2C733.3 113 766.7 111 800 114C833.3 117 866.7 125 883.3 129L900 133L900 0L883.3 0C866.7 0 833.3 0 800 0C766.7 0 733.3 0 700 0C666.7 0 633.3 0 600 0C566.7 0 533.3 0 500 0C466.7 0 433.3 0 400 0C366.7 0 333.3 0 300 0C266.7 0 233.3 0 200 0C166.7 0 133.3 0 100 0C66.7 0 33.3 0 16.7 0L0 0Z" fill="#00b7ff"></path><path d="M0 81L16.7 84.8C33.3 88.7 66.7 96.3 100 101.3C133.3 106.3 166.7 108.7 200 111.3C233.3 114 266.7 117 300 111.3C333.3 105.7 366.7 91.3 400 88.2C433.3 85 466.7 93 500 93.5C533.3 94 566.7 87 600 87.8C633.3 88.7 666.7 97.3 700 101.8C733.3 106.3 766.7 106.7 800 104.3C833.3 102 866.7 97 883.3 94.5L900 92L900 0L883.3 0C866.7 0 833.3 0 800 0C766.7 0 733.3 0 700 0C666.7 0 633.3 0 600 0C566.7 0 533.3 0 500 0C466.7 0 433.3 0 400 0C366.7 0 333.3 0 300 0C266.7 0 233.3 0 200 0C166.7 0 133.3 0 100 0C66.7 0 33.3 0 16.7 0L0 0Z" fill="#008fec"></path><path d="M0 86L16.7 84.3C33.3 82.7 66.7 79.3 100 76.7C133.3 74 166.7 72 200 70.3C233.3 68.7 266.7 67.3 300 64.5C333.3 61.7 366.7 57.3 400 59.5C433.3 61.7 466.7 70.3 500 75.8C533.3 81.3 566.7 83.7 600 82.2C633.3 80.7 666.7 75.3 700 70C733.3 64.7 766.7 59.3 800 57.5C833.3 55.7 866.7 57.3 883.3 58.2L900 59L900 0L883.3 0C866.7 0 833.3 0 800 0C766.7 0 733.3 0 700 0C666.7 0 633.3 0 600 0C566.7 0 533.3 0 500 0C466.7 0 433.3 0 400 0C366.7 0 333.3 0 300 0C266.7 0 233.3 0 200 0C166.7 0 133.3 0 100 0C66.7 0 33.3 0 16.7 0L0 0Z" fill="#0366d2"></path><path d="M0 35L16.7 37.8C33.3 40.7 66.7 46.3 100 45.7C133.3 45 166.7 38 200 36.3C233.3 34.7 266.7 38.3 300 38.8C333.3 39.3 366.7 36.7 400 36.7C433.3 36.7 466.7 39.3 500 42C533.3 44.7 566.7 47.3 600 45C633.3 42.7 666.7 35.3 700 31.3C733.3 27.3 766.7 26.7 800 27.5C833.3 28.3 866.7 30.7 883.3 31.8L900 33L900 0L883.3 0C866.7 0 833.3 0 800 0C766.7 0 733.3 0 700 0C666.7 0 633.3 0 600 0C566.7 0 533.3 0 500 0C466.7 0 433.3 0 400 0C366.7 0 333.3 0 300 0C266.7 0 233.3 0 200 0C166.7 0 133.3 0 100 0C66.7 0 33.3 0 16.7 0L0 0Z" fill="#253ab0"></path></svg>