<svg id="visual" viewBox="0 0 900 200" width="900" height="200" xmlns="http://www.w3.org/2000/svg" xmlns:xlink="http://www.w3.org/1999/xlink" version="1.1"><path d="M0 117L16.7 118.7C33.3 120.3 66.7 123.7 100 126.3C133.3 129 166.7 131 200 132.2C233.3 133.3 266.7 133.7 300 130.5C333.3 127.3 366.7 120.7 400 124.5C433.3 128.3 466.7 142.7 500 144.5C533.3 146.3 566.7 135.7 600 135.5C633.3 135.3 666.7 145.7 700 142.8C733.3 140 766.7 124 800 117.5C833.3 111 866.7 114 883.3 115.5L900 117L900 0L883.3 0C866.7 0 833.3 0 800 0C766.7 0 733.3 0 700 0C666.7 0 633.3 0 600 0C566.7 0 533.3 0 500 0C466.7 0 433.3 0 400 0C366.7 0 333.3 0 300 0C266.7 0 233.3 0 200 0C166.7 0 133.3 0 100 0C66.7 0 33.3 0 16.7 0L0 0Z" fill="#00b7ff"></path><path d="M0 89L16.7 88.7C33.3 88.3 66.7 87.7 100 91C133.3 94.3 166.7 101.7 200 100.8C233.3 100 266.7 91 300 91.7C333.3 92.3 366.7 102.7 400 104C433.3 105.3 466.7 97.7 500 95.7C533.3 93.7 566.7 97.3 600 102.5C633.3 107.7 666.7 114.3 700 110.8C733.3 107.3 766.7 93.7 800 93.8C833.3 94 866.7 108 883.3 115L900 122L900 0L883.3 0C866.7 0 833.3 0 800 0C766.7 0 733.3 0 700 0C666.7 0 633.3 0 600 0C566.7 0 533.3 0 500 0C466.7 0 433.3 0 400 0C366.7 0 333.3 0 300 0C266.7 0 233.3 0 200 0C166.7 0 133.3 0 100 0C66.7 0 33.3 0 16.7 0L0 0Z" fill="#008fec"></path><path d="M0 79L16.7 79.7C33.3 80.3 66.7 81.7 100 80.2C133.3 78.7 166.7 74.3 200 73.2C233.3 72 266.7 74 300 72.2C333.3 70.3 366.7 64.7 400 64C433.3 63.3 466.7 67.7 500 70.2C533.3 72.7 566.7 73.3 600 76.2C633.3 79 666.7 84 700 86.2C733.3 88.3 766.7 87.7 800 87.3C833.3 87 866.7 87 883.3 87L900 87L900 0L883.3 0C866.7 0 833.3 0 800 0C766.7 0 733.3 0 700 0C666.7 0 633.3 0 600 0C566.7 0 533.3 0 500 0C466.7 0 433.3 0 400 0C366.7 0 333.3 0 300 0C266.7 0 233.3 0 200 0C166.7 0 133.3 0 100 0C66.7 0 33.3 0 16.7 0L0 0Z" fill="#0366d2"></path><path d="M0 27L16.7 27.3C33.3 27.7 66.7 28.3 100 30.5C133.3 32.7 166.7 36.3 200 39.2C233.3 42 266.7 44 300 44.8C333.3 45.7 366.7 45.3 400 46.3C433.3 47.3 466.7 49.7 500 46C533.3 42.3 566.7 32.7 600 29.7C633.3 26.7 666.7 30.3 700 32.8C733.3 35.3 766.7 36.7 800 39.7C833.3 42.7 866.7 47.3 883.3 49.7L900 52L900 0L883.3 0C866.7 0 833.3 0 800 0C766.7 0 733.3 0 700 0C666.7 0 633.3 0 600 0C566.7 0 533.3 0 500 0C466.7 0 433.3 0 400 0C366.7 0 333.3 0 300 0C266.7 0 233.3 0 200 0C166.7 0 133.3 0 100 0C66.7 0 33.3 0 16.7 0L0 0Z" fill="#253ab0"></path></svg>