<svg id="visual" viewBox="0 0 900 200" width="900" height="200" xmlns="http://www.w3.org/2000/svg" xmlns:xlink="http://www.w3.org/1999/xlink" version="1.1"><path d="M0 101L15 97.5C30 94 60 87 90 90C120 93 150 106 180 113.3C210 120.7 240 122.3 270 121C300 119.7 330 115.3 360 104.2C390 93 420 75 450 72.5C480 70 510 83 540 93.8C570 104.7 600 113.3 630 110.3C660 107.3 690 92.7 720 85C750 77.3 780 76.7 810 71C840 65.3 870 54.7 885 49.3L900 44L900 0L885 0C870 0 840 0 810 0C780 0 750 0 720 0C690 0 660 0 630 0C600 0 570 0 540 0C510 0 480 0 450 0C420 0 390 0 360 0C330 0 300 0 270 0C240 0 210 0 180 0C150 0 120 0 90 0C60 0 30 0 15 0L0 0Z" fill="#3654FF" stroke-linecap="round" stroke-linejoin="miter"></path></svg>