<svg id="visual" viewBox="0 0 1000 250" width="1000" height="250" xmlns="http://www.w3.org/2000/svg" xmlns:xlink="http://www.w3.org/1999/xlink" version="1.1"><rect x="0" y="0" width="1000" height="250" fill="#f9f9f9"></rect><path d="M0 117L27.8 110C55.7 103 111.3 89 166.8 81C222.3 73 277.7 71 333.2 81.8C388.7 92.7 444.3 116.3 500 123C555.7 129.7 611.3 119.3 666.8 114C722.3 108.7 777.7 108.3 833.2 109C888.7 109.7 944.3 111.3 972.2 112.2L1000 113L1000 251L972.2 251C944.3 251 888.7 251 833.2 251C777.7 251 722.3 251 666.8 251C611.3 251 555.7 251 500 251C444.3 251 388.7 251 333.2 251C277.7 251 222.3 251 166.8 251C111.3 251 55.7 251 27.8 251L0 251Z" fill="#66d4ff"></path><path d="M0 141L27.8 142.5C55.7 144 111.3 147 166.8 156.7C222.3 166.3 277.7 182.7 333.2 184.5C388.7 186.3 444.3 173.7 500 173.3C555.7 173 611.3 185 666.8 191.5C722.3 198 777.7 199 833.2 180.8C888.7 162.7 944.3 125.3 972.2 106.7L1000 88L1000 251L972.2 251C944.3 251 888.7 251 833.2 251C777.7 251 722.3 251 666.8 251C611.3 251 555.7 251 500 251C444.3 251 388.7 251 333.2 251C277.7 251 222.3 251 166.8 251C111.3 251 55.7 251 27.8 251L0 251Z" fill="#009fff"></path><path d="M0 212L27.8 213.7C55.7 215.3 111.3 218.7 166.8 216.8C222.3 215 277.7 208 333.2 205C388.7 202 444.3 203 500 193.7C555.7 184.3 611.3 164.7 666.8 157C722.3 149.3 777.7 153.7 833.2 159.5C888.7 165.3 944.3 172.7 972.2 176.3L1000 180L1000 251L972.2 251C944.3 251 888.7 251 833.2 251C777.7 251 722.3 251 666.8 251C611.3 251 555.7 251 500 251C444.3 251 388.7 251 333.2 251C277.7 251 222.3 251 166.8 251C111.3 251 55.7 251 27.8 251L0 251Z" fill="#3654ff"></path></svg>