<svg id="visual" viewBox="0 0 1000 250" width="1000" height="250" xmlns="http://www.w3.org/2000/svg"
    xmlns:xlink="http://www.w3.org/1999/xlink" version="1.1">
    <rect x="0" y="0" width="1000" height="250" fill="#f9f9f9"></rect>
    <path
        d="M0 71L27.8 70.5C55.7 70 111.3 69 166.8 71.5C222.3 74 277.7 80 333.2 90.8C388.7 101.7 444.3 117.3 500 127C555.7 136.7 611.3 140.3 666.8 129.3C722.3 118.3 777.7 92.7 833.2 87.3C888.7 82 944.3 97 972.2 104.5L1000 112L1000 251L972.2 251C944.3 251 888.7 251 833.2 251C777.7 251 722.3 251 666.8 251C611.3 251 555.7 251 500 251C444.3 251 388.7 251 333.2 251C277.7 251 222.3 251 166.8 251C111.3 251 55.7 251 27.8 251L0 251Z"
        fill="#66d4ff"></path>
    <path
        d="M0 116L27.8 118C55.7 120 111.3 124 166.8 134.5C222.3 145 277.7 162 333.2 163.2C388.7 164.3 444.3 149.7 500 140.5C555.7 131.3 611.3 127.7 666.8 130.3C722.3 133 777.7 142 833.2 136C888.7 130 944.3 109 972.2 98.5L1000 88L1000 251L972.2 251C944.3 251 888.7 251 833.2 251C777.7 251 722.3 251 666.8 251C611.3 251 555.7 251 500 251C444.3 251 388.7 251 333.2 251C277.7 251 222.3 251 166.8 251C111.3 251 55.7 251 27.8 251L0 251Z"
        fill="#009fff"></path>
    <path
        d="M0 219L27.8 219.5C55.7 220 111.3 221 166.8 209.2C222.3 197.3 277.7 172.7 333.2 160.7C388.7 148.7 444.3 149.3 500 154.3C555.7 159.3 611.3 168.7 666.8 174.3C722.3 180 777.7 182 833.2 179.8C888.7 177.7 944.3 171.3 972.2 168.2L1000 165L1000 251L972.2 251C944.3 251 888.7 251 833.2 251C777.7 251 722.3 251 666.8 251C611.3 251 555.7 251 500 251C444.3 251 388.7 251 333.2 251C277.7 251 222.3 251 166.8 251C111.3 251 55.7 251 27.8 251L0 251Z"
        fill="#3654ff"></path>
</svg>