<svg id="visual" viewBox="0 0 1000 250" width="1000" height="250" xmlns="http://www.w3.org/2000/svg" xmlns:xlink="http://www.w3.org/1999/xlink" version="1.1"><rect x="0" y="0" width="1000" height="250" fill="#f9f9f9"></rect><path d="M0 174L27.8 172.8C55.7 171.7 111.3 169.3 166.8 165.2C222.3 161 277.7 155 333.2 154C388.7 153 444.3 157 500 160.3C555.7 163.7 611.3 166.3 666.8 167.8C722.3 169.3 777.7 169.7 833.2 166.5C888.7 163.3 944.3 156.7 972.2 153.3L1000 150L1000 251L972.2 251C944.3 251 888.7 251 833.2 251C777.7 251 722.3 251 666.8 251C611.3 251 555.7 251 500 251C444.3 251 388.7 251 333.2 251C277.7 251 222.3 251 166.8 251C111.3 251 55.7 251 27.8 251L0 251Z" fill="#66d4ff"></path><path d="M0 152L27.8 158.3C55.7 164.7 111.3 177.3 166.8 173.2C222.3 169 277.7 148 333.2 143.7C388.7 139.3 444.3 151.7 500 151C555.7 150.3 611.3 136.7 666.8 137.5C722.3 138.3 777.7 153.7 833.2 149C888.7 144.3 944.3 119.7 972.2 107.3L1000 95L1000 251L972.2 251C944.3 251 888.7 251 833.2 251C777.7 251 722.3 251 666.8 251C611.3 251 555.7 251 500 251C444.3 251 388.7 251 333.2 251C277.7 251 222.3 251 166.8 251C111.3 251 55.7 251 27.8 251L0 251Z" fill="#009fff"></path><path d="M0 213L27.8 214C55.7 215 111.3 217 166.8 218.7C222.3 220.3 277.7 221.7 333.2 217.5C388.7 213.3 444.3 203.7 500 198C555.7 192.3 611.3 190.7 666.8 188.8C722.3 187 777.7 185 833.2 185C888.7 185 944.3 187 972.2 188L1000 189L1000 251L972.2 251C944.3 251 888.7 251 833.2 251C777.7 251 722.3 251 666.8 251C611.3 251 555.7 251 500 251C444.3 251 388.7 251 333.2 251C277.7 251 222.3 251 166.8 251C111.3 251 55.7 251 27.8 251L0 251Z" fill="#3654ff"></path></svg>