<svg id="visual" viewBox="0 0 1000 300" width="1000" height="300" xmlns="http://www.w3.org/2000/svg" xmlns:xlink="http://www.w3.org/1999/xlink" version="1.1"><rect x="0" y="0" width="1000" height="300" fill="#f9f9f9"></rect><path d="M0 154L23.8 167.7C47.7 181.3 95.3 208.7 143 216.2C190.7 223.7 238.3 211.3 286 209.5C333.7 207.7 381.3 216.3 428.8 207C476.3 197.7 523.7 170.3 571.2 173.7C618.7 177 666.3 211 714 213.3C761.7 215.7 809.3 186.3 857 183.2C904.7 180 952.3 203 976.2 214.5L1000 226L1000 0L976.2 0C952.3 0 904.7 0 857 0C809.3 0 761.7 0 714 0C666.3 0 618.7 0 571.2 0C523.7 0 476.3 0 428.8 0C381.3 0 333.7 0 286 0C238.3 0 190.7 0 143 0C95.3 0 47.7 0 23.8 0L0 0Z" fill="#66d4ff"></path><path d="M0 120L23.8 120.5C47.7 121 95.3 122 143 123.8C190.7 125.7 238.3 128.3 286 133.8C333.7 139.3 381.3 147.7 428.8 156.5C476.3 165.3 523.7 174.7 571.2 180.7C618.7 186.7 666.3 189.3 714 179C761.7 168.7 809.3 145.3 857 140.2C904.7 135 952.3 148 976.2 154.5L1000 161L1000 0L976.2 0C952.3 0 904.7 0 857 0C809.3 0 761.7 0 714 0C666.3 0 618.7 0 571.2 0C523.7 0 476.3 0 428.8 0C381.3 0 333.7 0 286 0C238.3 0 190.7 0 143 0C95.3 0 47.7 0 23.8 0L0 0Z" fill="#16b2ff"></path><path d="M0 82L23.8 91C47.7 100 95.3 118 143 117.2C190.7 116.3 238.3 96.7 286 93.3C333.7 90 381.3 103 428.8 113C476.3 123 523.7 130 571.2 128.2C618.7 126.3 666.3 115.7 714 112.3C761.7 109 809.3 113 857 113.3C904.7 113.7 952.3 110.3 976.2 108.7L1000 107L1000 0L976.2 0C952.3 0 904.7 0 857 0C809.3 0 761.7 0 714 0C666.3 0 618.7 0 571.2 0C523.7 0 476.3 0 428.8 0C381.3 0 333.7 0 286 0C238.3 0 190.7 0 143 0C95.3 0 47.7 0 23.8 0L0 0Z" fill="#008aff"></path><path d="M0 45L23.8 43.7C47.7 42.3 95.3 39.7 143 46.8C190.7 54 238.3 71 286 69.8C333.7 68.7 381.3 49.3 428.8 46.8C476.3 44.3 523.7 58.7 571.2 67.8C618.7 77 666.3 81 714 79.7C761.7 78.3 809.3 71.7 857 62.5C904.7 53.3 952.3 41.7 976.2 35.8L1000 30L1000 0L976.2 0C952.3 0 904.7 0 857 0C809.3 0 761.7 0 714 0C666.3 0 618.7 0 571.2 0C523.7 0 476.3 0 428.8 0C381.3 0 333.7 0 286 0C238.3 0 190.7 0 143 0C95.3 0 47.7 0 23.8 0L0 0Z" fill="#3654ff"></path></svg>