<svg id="visual" viewBox="0 0 1000 300" width="1000" height="300" xmlns="http://www.w3.org/2000/svg" xmlns:xlink="http://www.w3.org/1999/xlink" version="1.1"><rect x="0" y="0" width="1000" height="300" fill="#f9f9f9"></rect><path d="M0 243L23.8 236.3C47.7 229.7 95.3 216.3 143 210.3C190.7 204.3 238.3 205.7 286 212.2C333.7 218.7 381.3 230.3 428.8 233.7C476.3 237 523.7 232 571.2 218.2C618.7 204.3 666.3 181.7 714 176.5C761.7 171.3 809.3 183.7 857 197.5C904.7 211.3 952.3 226.7 976.2 234.3L1000 242L1000 0L976.2 0C952.3 0 904.7 0 857 0C809.3 0 761.7 0 714 0C666.3 0 618.7 0 571.2 0C523.7 0 476.3 0 428.8 0C381.3 0 333.7 0 286 0C238.3 0 190.7 0 143 0C95.3 0 47.7 0 23.8 0L0 0Z" fill="#66d4ff"></path><path d="M0 152L23.8 145.2C47.7 138.3 95.3 124.7 143 120.5C190.7 116.3 238.3 121.7 286 129.8C333.7 138 381.3 149 428.8 149.7C476.3 150.3 523.7 140.7 571.2 138C618.7 135.3 666.3 139.7 714 148.2C761.7 156.7 809.3 169.3 857 174.2C904.7 179 952.3 176 976.2 174.5L1000 173L1000 0L976.2 0C952.3 0 904.7 0 857 0C809.3 0 761.7 0 714 0C666.3 0 618.7 0 571.2 0C523.7 0 476.3 0 428.8 0C381.3 0 333.7 0 286 0C238.3 0 190.7 0 143 0C95.3 0 47.7 0 23.8 0L0 0Z" fill="#16b2ff"></path><path d="M0 99L23.8 103.3C47.7 107.7 95.3 116.3 143 118.5C190.7 120.7 238.3 116.3 286 114.5C333.7 112.7 381.3 113.3 428.8 114C476.3 114.7 523.7 115.3 571.2 117.8C618.7 120.3 666.3 124.7 714 128.7C761.7 132.7 809.3 136.3 857 130.5C904.7 124.7 952.3 109.3 976.2 101.7L1000 94L1000 0L976.2 0C952.3 0 904.7 0 857 0C809.3 0 761.7 0 714 0C666.3 0 618.7 0 571.2 0C523.7 0 476.3 0 428.8 0C381.3 0 333.7 0 286 0C238.3 0 190.7 0 143 0C95.3 0 47.7 0 23.8 0L0 0Z" fill="#008aff"></path><path d="M0 82L23.8 81.5C47.7 81 95.3 80 143 76.5C190.7 73 238.3 67 286 61.8C333.7 56.7 381.3 52.3 428.8 55.2C476.3 58 523.7 68 571.2 71.5C618.7 75 666.3 72 714 73.8C761.7 75.7 809.3 82.3 857 83.3C904.7 84.3 952.3 79.7 976.2 77.3L1000 75L1000 0L976.2 0C952.3 0 904.7 0 857 0C809.3 0 761.7 0 714 0C666.3 0 618.7 0 571.2 0C523.7 0 476.3 0 428.8 0C381.3 0 333.7 0 286 0C238.3 0 190.7 0 143 0C95.3 0 47.7 0 23.8 0L0 0Z" fill="#3654ff"></path></svg>