<svg id="visual" viewBox="0 0 1000 300" width="1000" height="300" xmlns="http://www.w3.org/2000/svg" xmlns:xlink="http://www.w3.org/1999/xlink" version="1.1"><rect x="0" y="0" width="1000" height="300" fill="#f9f9f9"></rect><path d="M0 201L23.8 198.2C47.7 195.3 95.3 189.7 143 193.7C190.7 197.7 238.3 211.3 286 205.8C333.7 200.3 381.3 175.7 428.8 167.8C476.3 160 523.7 169 571.2 175.8C618.7 182.7 666.3 187.3 714 197.3C761.7 207.3 809.3 222.7 857 231C904.7 239.3 952.3 240.7 976.2 241.3L1000 242L1000 0L976.2 0C952.3 0 904.7 0 857 0C809.3 0 761.7 0 714 0C666.3 0 618.7 0 571.2 0C523.7 0 476.3 0 428.8 0C381.3 0 333.7 0 286 0C238.3 0 190.7 0 143 0C95.3 0 47.7 0 23.8 0L0 0Z" fill="#66d4ff"></path><path d="M0 124L23.8 122C47.7 120 95.3 116 143 127.2C190.7 138.3 238.3 164.7 286 173C333.7 181.3 381.3 171.7 428.8 159.2C476.3 146.7 523.7 131.3 571.2 131.8C618.7 132.3 666.3 148.7 714 161.7C761.7 174.7 809.3 184.3 857 185.2C904.7 186 952.3 178 976.2 174L1000 170L1000 0L976.2 0C952.3 0 904.7 0 857 0C809.3 0 761.7 0 714 0C666.3 0 618.7 0 571.2 0C523.7 0 476.3 0 428.8 0C381.3 0 333.7 0 286 0C238.3 0 190.7 0 143 0C95.3 0 47.7 0 23.8 0L0 0Z" fill="#16b2ff"></path><path d="M0 91L23.8 88.5C47.7 86 95.3 81 143 87.3C190.7 93.7 238.3 111.3 286 119.8C333.7 128.3 381.3 127.7 428.8 117.7C476.3 107.7 523.7 88.3 571.2 82.3C618.7 76.3 666.3 83.7 714 92.5C761.7 101.3 809.3 111.7 857 108.2C904.7 104.7 952.3 87.3 976.2 78.7L1000 70L1000 0L976.2 0C952.3 0 904.7 0 857 0C809.3 0 761.7 0 714 0C666.3 0 618.7 0 571.2 0C523.7 0 476.3 0 428.8 0C381.3 0 333.7 0 286 0C238.3 0 190.7 0 143 0C95.3 0 47.7 0 23.8 0L0 0Z" fill="#008aff"></path><path d="M0 86L23.8 83.8C47.7 81.7 95.3 77.3 143 73.7C190.7 70 238.3 67 286 60.8C333.7 54.7 381.3 45.3 428.8 42.3C476.3 39.3 523.7 42.7 571.2 51.2C618.7 59.7 666.3 73.3 714 78C761.7 82.7 809.3 78.3 857 74.3C904.7 70.3 952.3 66.7 976.2 64.8L1000 63L1000 0L976.2 0C952.3 0 904.7 0 857 0C809.3 0 761.7 0 714 0C666.3 0 618.7 0 571.2 0C523.7 0 476.3 0 428.8 0C381.3 0 333.7 0 286 0C238.3 0 190.7 0 143 0C95.3 0 47.7 0 23.8 0L0 0Z" fill="#3654ff"></path></svg>