<svg width="770" height="661" viewBox="0 0 770 661" fill="none" xmlns="http://www.w3.org/2000/svg">
<path d="M1.66377 660.163C42.1761 653.084 40.7675 607.8 70.649 578.974C149.705 502.71 269.21 544.896 316.097 444.679C324.058 427.662 323.284 415.808 332.093 399.233C358.856 348.875 421.6 365.777 451.068 317.021C474.506 278.243 443.202 233.977 476.063 203.151C503.752 177.176 544.844 208.614 569.543 179.663C586.988 159.214 575.631 136.386 589.538 113.281C621.413 60.3284 692.755 97.0288 732.508 49.9628C752.987 25.716 770 -22.5463 770 -22.5463C770 -22.5463 -53.7513 -23.5671 -26.3303 -22.5463V660.163C-26.3303 660.163 -9.11206 662.046 1.66377 660.163Z" fill="#1F3091"/>
</svg>
