<svg width="703" height="676" viewBox="0 0 703 676" fill="none" xmlns="http://www.w3.org/2000/svg">
<path d="M2.5 678C43.0123 670.921 26.6185 641.826 56.5 613C135.556 536.737 233.614 613.217 280.5 513C288.461 495.983 325.997 431.982 353.5 419.5C418.5 390 446.532 398.256 476 349.5C499.438 310.722 433.14 187.826 466 157C493.689 131.025 529.301 153.451 554 124.5C571.445 104.052 564.592 76.6048 578.5 53.5C610.375 0.547474 640.247 70.066 680 23C700.479 -1.24678 703 -22.5463 703 -22.5463C703 -22.5463 -53.7513 -23.5671 -26.3303 -22.5463V660.163C-26.3303 660.163 -8.27583 679.883 2.5 678Z" fill="#1F3091"/>
</svg>
