<svg width="723" height="667" viewBox="0 0 723 667" fill="none" xmlns="http://www.w3.org/2000/svg">
<path d="M0.500025 666C41.0124 658.921 45.6185 625.826 75.5 597C154.556 520.737 251.614 580.717 298.5 480.5C306.461 463.483 299.497 414.982 327 402.5C392 373 438.532 381.256 468 332.5C491.438 293.722 435.14 210.489 468 179.663C495.689 153.687 533.301 185.951 558 157C575.445 136.552 560.592 122.105 574.5 99C606.375 46.0475 675.747 89.566 715.5 42.5C735.979 18.2532 703 -22.5463 703 -22.5463C703 -22.5463 -53.7513 -23.5671 -26.3303 -22.5463V660.163C-26.3303 660.163 -10.2758 667.883 0.500025 666Z" fill="#1F3091"/>
</svg>
