<svg width="774" height="661" viewBox="0 0 774 661" fill="none" xmlns="http://www.w3.org/2000/svg">
<path d="M1.66377 660.163C42.1761 653.084 38.03 608.883 77.5 596C149.5 572.5 84 467 238 460C256.768 459.147 306.191 440.075 315 423.5C341.763 373.143 420.032 399.256 449.5 350.5C472.938 311.722 463.64 259.826 496.5 229C524.189 203.025 553.801 218.451 578.5 189.5C595.945 169.052 593.092 137.605 607 114.5C638.875 61.5475 721.247 95.566 761 48.5C781.479 24.2532 770 -22.5463 770 -22.5463C770 -22.5463 -53.7513 -23.5671 -26.3303 -22.5463V660.163C-26.3303 660.163 -9.11206 662.046 1.66377 660.163Z" fill="#1F3091"/>
</svg>
