<svg width="786" height="661" viewBox="0 0 786 661" fill="none" xmlns="http://www.w3.org/2000/svg">
<path d="M-1.5 640.5C39.0123 633.421 30.03 587.383 69.5 574.5C141.5 551 73.5 455 227.5 448C246.268 447.147 291.5 455 291.5 415.5C291.5 358.472 435.532 412.256 465 363.5C488.438 324.722 476.64 288.326 509.5 257.5C537.189 231.525 582.301 224.451 607 195.5C624.445 175.052 629.592 141.605 643.5 118.5C675.375 65.5475 738.247 98.566 778 51.5C798.479 27.2532 770 -22.5463 770 -22.5463C770 -22.5463 -53.7513 -23.5671 -26.3303 -22.5463V660.163C-26.3303 660.163 -12.2758 642.383 -1.5 640.5Z" fill="#1F3091"/>
</svg>
